<?xml version="1.0" encoding="UTF-8" standalone="no"?>
<!DOCTYPE svg PUBLIC "-//W3C//DTD SVG 1.1//EN"
 "http://www.w3.org/Graphics/SVG/1.1/DTD/svg11.dtd">
<!-- Generated by graphviz version 2.40.1 (20161225.0304)
 -->
<!-- Title: dependencies Pages: 1 -->
<svg width="1118pt" height="284pt"
 viewBox="0.00 0.00 1118.00 284.00" xmlns="http://www.w3.org/2000/svg" xmlns:xlink="http://www.w3.org/1999/xlink">
<g id="graph0" class="graph" transform="scale(1 1) rotate(0) translate(4 280)">
<title>dependencies</title>
<polygon fill="#ffffff" stroke="transparent" points="-4,4 -4,-280 1114,-280 1114,4 -4,4"/>
<text text-anchor="start" x="534.0091" y="-42.4" font-family="sans-serif" font-weight="bold" font-size="14.00" fill="#000000">Legend</text>
<polygon fill="#ffffb3" stroke="transparent" points="321,-10 321,-30 341,-30 341,-10 321,-10"/>
<text text-anchor="start" x="344.629" y="-15.4" font-family="sans-serif" font-size="14.00" fill="#000000"> &#160;Declarations</text>
<polygon fill="#8dd3c7" stroke="transparent" points="434,-10 434,-30 454,-30 454,-10 434,-10"/>
<text text-anchor="start" x="457.7251" y="-15.4" font-family="sans-serif" font-size="14.00" fill="#000000"> &#160;Module</text>
<polygon fill="#80b1d3" stroke="transparent" points="520,-10 520,-30 540,-30 540,-10 520,-10"/>
<text text-anchor="start" x="543.7812" y="-15.4" font-family="sans-serif" font-size="14.00" fill="#000000"> &#160;Bootstrap</text>
<polygon fill="#fdb462" stroke="transparent" points="617,-10 617,-30 637,-30 637,-10 617,-10"/>
<text text-anchor="start" x="640.6732" y="-15.4" font-family="sans-serif" font-size="14.00" fill="#000000"> &#160;Providers</text>
<polygon fill="#fb8072" stroke="transparent" points="713,-10 713,-30 733,-30 733,-10 713,-10"/>
<text text-anchor="start" x="736.7258" y="-15.4" font-family="sans-serif" font-size="14.00" fill="#000000"> &#160;Exports</text>
<g id="clust1" class="cluster">
<title>cluster_AppModule</title>
<polygon fill="none" stroke="#000000" stroke-dasharray="1,5" points="8,-70 8,-268 148,-268 148,-70 8,-70"/>
</g>
<g id="clust2" class="cluster">
<title>cluster_AppModule_declarations</title>
<polygon fill="none" stroke="#000000" points="17,-78 17,-130 139,-130 139,-78 17,-78"/>
</g>
<g id="clust6" class="cluster">
<title>cluster_AppModule_bootstrap</title>
<polygon fill="none" stroke="#000000" points="16,-208 16,-260 140,-260 140,-208 16,-208"/>
</g>
<g id="clust8" class="cluster">
<title>cluster_NeoPipesModule</title>
<polygon fill="none" stroke="#000000" stroke-dasharray="1,5" points="156,-70 156,-268 1102,-268 1102,-70 156,-70"/>
</g>
<g id="clust9" class="cluster">
<title>cluster_NeoPipesModule_declarations</title>
<polygon fill="none" stroke="#000000" points="164,-78 164,-130 1094,-130 1094,-78 164,-78"/>
</g>
<g id="clust19" class="cluster">
<title>cluster_NeoPipesModule_exports</title>
<polygon fill="none" stroke="#000000" points="561,-208 561,-260 669,-260 669,-208 561,-208"/>
</g>
<!-- AppComponent -->
<g id="node1" class="node">
<title>AppComponent</title>
<polygon fill="#ffffb3" stroke="#000000" points="130.9399,-122 25.0601,-122 25.0601,-86 130.9399,-86 130.9399,-122"/>
<text text-anchor="middle" x="78" y="-99.8" font-family="Times,serif" font-size="14.00" fill="#000000">AppComponent</text>
</g>
<!-- AppModule -->
<g id="node2" class="node">
<title>AppModule</title>
<polygon fill="#8dd3c7" stroke="#000000" points="119.6571,-187 116.6571,-191 95.6571,-191 92.6571,-187 36.3429,-187 36.3429,-151 119.6571,-151 119.6571,-187"/>
<text text-anchor="middle" x="78" y="-164.8" font-family="Times,serif" font-size="14.00" fill="#000000">AppModule</text>
</g>
<!-- AppComponent&#45;&gt;AppModule -->
<g id="edge1" class="edge">
<title>AppComponent&#45;&gt;AppModule</title>
<path fill="none" stroke="#000000" d="M78,-122.1061C78,-122.1061 78,-140.991 78,-140.991"/>
<polygon fill="#000000" stroke="#000000" points="74.5001,-140.9909 78,-150.991 81.5001,-140.991 74.5001,-140.9909"/>
</g>
<!-- AppComponent  -->
<g id="node3" class="node">
<title>AppComponent </title>
<polygon fill="#80b1d3" stroke="#000000" points="132.439,-252 23.561,-252 23.561,-216 132.439,-216 132.439,-252"/>
<text text-anchor="middle" x="78" y="-229.8" font-family="Times,serif" font-size="14.00" fill="#000000">AppComponent </text>
</g>
<!-- AppModule&#45;&gt;AppComponent  -->
<g id="edge2" class="edge">
<title>AppModule&#45;&gt;AppComponent </title>
<path fill="none" stroke="#000000" stroke-dasharray="1,5" d="M78,-187.1061C78,-187.1061 78,-205.991 78,-205.991"/>
<polygon fill="#000000" stroke="#000000" points="74.5001,-205.9909 78,-215.991 81.5001,-205.991 74.5001,-205.9909"/>
</g>
<!-- NumberPipe -->
<g id="node4" class="node">
<title>NumberPipe</title>
<polygon fill="#ffffb3" stroke="#000000" points="1086.2605,-122 999.7395,-122 999.7395,-86 1086.2605,-86 1086.2605,-122"/>
<text text-anchor="middle" x="1043" y="-99.8" font-family="Times,serif" font-size="14.00" fill="#000000">NumberPipe</text>
</g>
<!-- NeoPipesModule -->
<g id="node12" class="node">
<title>NeoPipesModule</title>
<polygon fill="#8dd3c7" stroke="#000000" points="671.7036,-187 668.7036,-191 647.7036,-191 644.7036,-187 558.2964,-187 558.2964,-151 671.7036,-151 671.7036,-187"/>
<text text-anchor="middle" x="615" y="-164.8" font-family="Times,serif" font-size="14.00" fill="#000000">NeoPipesModule</text>
</g>
<!-- NumberPipe&#45;&gt;NeoPipesModule -->
<g id="edge3" class="edge">
<title>NumberPipe&#45;&gt;NeoPipesModule</title>
<path fill="none" stroke="#000000" d="M1043,-122.2921C1043,-144.2057 1043,-178 1043,-178 1043,-178 681.8351,-178 681.8351,-178"/>
<polygon fill="#000000" stroke="#000000" points="681.8351,-174.5001 671.8351,-178 681.8351,-181.5001 681.8351,-174.5001"/>
</g>
<!-- TextPipe -->
<g id="node5" class="node">
<title>TextPipe</title>
<polygon fill="#ffffb3" stroke="#000000" points="981.0471,-122 914.9529,-122 914.9529,-86 981.0471,-86 981.0471,-122"/>
<text text-anchor="middle" x="948" y="-99.8" font-family="Times,serif" font-size="14.00" fill="#000000">TextPipe</text>
</g>
<!-- TextPipe&#45;&gt;NeoPipesModule -->
<g id="edge4" class="edge">
<title>TextPipe&#45;&gt;NeoPipesModule</title>
<path fill="none" stroke="#000000" d="M948,-122.1061C948,-141.3391 948,-169 948,-169 948,-169 681.8664,-169 681.8664,-169"/>
<polygon fill="#000000" stroke="#000000" points="681.8664,-165.5001 671.8664,-169 681.8663,-172.5001 681.8664,-165.5001"/>
</g>
<!-- TextPipeTwoLevel -->
<g id="node6" class="node">
<title>TextPipeTwoLevel</title>
<polygon fill="#ffffb3" stroke="#000000" points="897.0772,-122 772.9228,-122 772.9228,-86 897.0772,-86 897.0772,-122"/>
<text text-anchor="middle" x="835" y="-99.8" font-family="Times,serif" font-size="14.00" fill="#000000">TextPipeTwoLevel</text>
</g>
<!-- TextPipeTwoLevel&#45;&gt;NeoPipesModule -->
<g id="edge5" class="edge">
<title>TextPipeTwoLevel&#45;&gt;NeoPipesModule</title>
<path fill="none" stroke="#000000" d="M835,-122.027C835,-138.3976 835,-160 835,-160 835,-160 681.6555,-160 681.6555,-160"/>
<polygon fill="#000000" stroke="#000000" points="681.6555,-156.5001 671.6555,-160 681.6554,-163.5001 681.6555,-156.5001"/>
</g>
<!-- NumberPipeTwoLevel -->
<g id="node7" class="node">
<title>NumberPipeTwoLevel</title>
<polygon fill="#ffffb3" stroke="#000000" points="755.2921,-122 610.7079,-122 610.7079,-86 755.2921,-86 755.2921,-122"/>
<text text-anchor="middle" x="683" y="-99.8" font-family="Times,serif" font-size="14.00" fill="#000000">NumberPipeTwoLevel</text>
</g>
<!-- NumberPipeTwoLevel&#45;&gt;NeoPipesModule -->
<g id="edge6" class="edge">
<title>NumberPipeTwoLevel&#45;&gt;NeoPipesModule</title>
<path fill="none" stroke="#000000" d="M641.2279,-122.1061C641.2279,-122.1061 641.2279,-140.991 641.2279,-140.991"/>
<polygon fill="#000000" stroke="#000000" points="637.728,-140.9909 641.2279,-150.991 644.728,-140.991 637.728,-140.9909"/>
</g>
<!-- BeautifyPipe -->
<g id="node8" class="node">
<title>BeautifyPipe</title>
<polygon fill="#ffffb3" stroke="#000000" points="592.5955,-122 503.4045,-122 503.4045,-86 592.5955,-86 592.5955,-122"/>
<text text-anchor="middle" x="548" y="-99.8" font-family="Times,serif" font-size="14.00" fill="#000000">BeautifyPipe</text>
</g>
<!-- BeautifyPipe&#45;&gt;NeoPipesModule -->
<g id="edge7" class="edge">
<title>BeautifyPipe&#45;&gt;NeoPipesModule</title>
<path fill="none" stroke="#000000" d="M575.473,-122.1061C575.473,-122.1061 575.473,-140.991 575.473,-140.991"/>
<polygon fill="#000000" stroke="#000000" points="571.9731,-140.9909 575.473,-150.991 578.9731,-140.991 571.9731,-140.9909"/>
</g>
<!-- DatePipe -->
<g id="node9" class="node">
<title>DatePipe</title>
<polygon fill="#ffffb3" stroke="#000000" points="485.8149,-122 418.1851,-122 418.1851,-86 485.8149,-86 485.8149,-122"/>
<text text-anchor="middle" x="452" y="-99.8" font-family="Times,serif" font-size="14.00" fill="#000000">DatePipe</text>
</g>
<!-- DatePipe&#45;&gt;NeoPipesModule -->
<g id="edge8" class="edge">
<title>DatePipe&#45;&gt;NeoPipesModule</title>
<path fill="none" stroke="#000000" d="M452,-122.027C452,-138.3976 452,-160 452,-160 452,-160 547.9905,-160 547.9905,-160"/>
<polygon fill="#000000" stroke="#000000" points="547.9905,-163.5001 557.9905,-160 547.9905,-156.5001 547.9905,-163.5001"/>
</g>
<!-- RangePipe -->
<g id="node10" class="node">
<title>RangePipe</title>
<polygon fill="#ffffb3" stroke="#000000" points="400.1544,-122 323.8456,-122 323.8456,-86 400.1544,-86 400.1544,-122"/>
<text text-anchor="middle" x="362" y="-99.8" font-family="Times,serif" font-size="14.00" fill="#000000">RangePipe</text>
</g>
<!-- RangePipe&#45;&gt;NeoPipesModule -->
<g id="edge9" class="edge">
<title>RangePipe&#45;&gt;NeoPipesModule</title>
<path fill="none" stroke="#000000" d="M362,-122.1061C362,-141.3391 362,-169 362,-169 362,-169 548.2219,-169 548.2219,-169"/>
<polygon fill="#000000" stroke="#000000" points="548.2219,-172.5001 558.2219,-169 548.2218,-165.5001 548.2219,-172.5001"/>
</g>
<!-- RangePipeTwoLevel -->
<g id="node11" class="node">
<title>RangePipeTwoLevel</title>
<polygon fill="#ffffb3" stroke="#000000" points="306.1853,-122 171.8147,-122 171.8147,-86 306.1853,-86 306.1853,-122"/>
<text text-anchor="middle" x="239" y="-99.8" font-family="Times,serif" font-size="14.00" fill="#000000">RangePipeTwoLevel</text>
</g>
<!-- RangePipeTwoLevel&#45;&gt;NeoPipesModule -->
<g id="edge10" class="edge">
<title>RangePipeTwoLevel&#45;&gt;NeoPipesModule</title>
<path fill="none" stroke="#000000" d="M239,-122.2921C239,-144.2057 239,-178 239,-178 239,-178 548.3019,-178 548.3019,-178"/>
<polygon fill="#000000" stroke="#000000" points="548.3019,-181.5001 558.3019,-178 548.3019,-174.5001 548.3019,-181.5001"/>
</g>
<!-- BeautifyPipe  -->
<g id="node13" class="node">
<title>BeautifyPipe </title>
<polygon fill="#fb8072" stroke="#000000" points="661.0963,-252 568.9037,-252 568.9037,-216 661.0963,-216 661.0963,-252"/>
<text text-anchor="middle" x="615" y="-229.8" font-family="Times,serif" font-size="14.00" fill="#000000">BeautifyPipe </text>
</g>
<!-- NeoPipesModule&#45;&gt;BeautifyPipe  -->
<g id="edge11" class="edge">
<title>NeoPipesModule&#45;&gt;BeautifyPipe </title>
<path fill="none" stroke="#000000" stroke-dasharray="5,2" d="M615,-187.1061C615,-187.1061 615,-205.991 615,-205.991"/>
<polygon fill="#000000" stroke="#000000" points="611.5001,-205.9909 615,-215.991 618.5001,-205.991 611.5001,-205.9909"/>
</g>
</g>
</svg>
