<?xml version="1.0" encoding="UTF-8" standalone="no"?>
<!DOCTYPE svg PUBLIC "-//W3C//DTD SVG 1.1//EN"
 "http://www.w3.org/Graphics/SVG/1.1/DTD/svg11.dtd">
<!-- Generated by graphviz version 2.40.1 (20161225.0304)
 -->
<!-- Title: dependencies Pages: 1 -->
<svg width="970pt" height="284pt"
 viewBox="0.00 0.00 970.00 284.00" xmlns="http://www.w3.org/2000/svg" xmlns:xlink="http://www.w3.org/1999/xlink">
<g id="graph0" class="graph" transform="scale(1 1) rotate(0) translate(4 280)">
<title>dependencies</title>
<polygon fill="#ffffff" stroke="transparent" points="-4,4 -4,-280 966,-280 966,4 -4,4"/>
<text text-anchor="start" x="460.0091" y="-42.4" font-family="sans-serif" font-weight="bold" font-size="14.00" fill="#000000">Legend</text>
<polygon fill="#ffffb3" stroke="transparent" points="247,-10 247,-30 267,-30 267,-10 247,-10"/>
<text text-anchor="start" x="270.629" y="-15.4" font-family="sans-serif" font-size="14.00" fill="#000000"> &#160;Declarations</text>
<polygon fill="#8dd3c7" stroke="transparent" points="360,-10 360,-30 380,-30 380,-10 360,-10"/>
<text text-anchor="start" x="383.7251" y="-15.4" font-family="sans-serif" font-size="14.00" fill="#000000"> &#160;Module</text>
<polygon fill="#80b1d3" stroke="transparent" points="446,-10 446,-30 466,-30 466,-10 446,-10"/>
<text text-anchor="start" x="469.7812" y="-15.4" font-family="sans-serif" font-size="14.00" fill="#000000"> &#160;Bootstrap</text>
<polygon fill="#fdb462" stroke="transparent" points="543,-10 543,-30 563,-30 563,-10 543,-10"/>
<text text-anchor="start" x="566.6732" y="-15.4" font-family="sans-serif" font-size="14.00" fill="#000000"> &#160;Providers</text>
<polygon fill="#fb8072" stroke="transparent" points="639,-10 639,-30 659,-30 659,-10 639,-10"/>
<text text-anchor="start" x="662.7258" y="-15.4" font-family="sans-serif" font-size="14.00" fill="#000000"> &#160;Exports</text>
<g id="clust1" class="cluster">
<title>cluster_NeoPipesModule</title>
<polygon fill="none" stroke="#000000" stroke-dasharray="1,5" points="8,-70 8,-268 954,-268 954,-70 8,-70"/>
</g>
<g id="clust2" class="cluster">
<title>cluster_NeoPipesModule_declarations</title>
<polygon fill="none" stroke="#000000" points="16,-78 16,-130 946,-130 946,-78 16,-78"/>
</g>
<g id="clust12" class="cluster">
<title>cluster_NeoPipesModule_exports</title>
<polygon fill="none" stroke="#000000" points="413,-208 413,-260 521,-260 521,-208 413,-208"/>
</g>
<!-- NumberPipe -->
<g id="node1" class="node">
<title>NumberPipe</title>
<polygon fill="#ffffb3" stroke="#000000" points="938.2605,-122 851.7395,-122 851.7395,-86 938.2605,-86 938.2605,-122"/>
<text text-anchor="middle" x="895" y="-99.8" font-family="Times,serif" font-size="14.00" fill="#000000">NumberPipe</text>
</g>
<!-- NeoPipesModule -->
<g id="node9" class="node">
<title>NeoPipesModule</title>
<polygon fill="#8dd3c7" stroke="#000000" points="523.7036,-187 520.7036,-191 499.7036,-191 496.7036,-187 410.2964,-187 410.2964,-151 523.7036,-151 523.7036,-187"/>
<text text-anchor="middle" x="467" y="-164.8" font-family="Times,serif" font-size="14.00" fill="#000000">NeoPipesModule</text>
</g>
<!-- NumberPipe&#45;&gt;NeoPipesModule -->
<g id="edge1" class="edge">
<title>NumberPipe&#45;&gt;NeoPipesModule</title>
<path fill="none" stroke="#000000" d="M895,-122.2921C895,-144.2057 895,-178 895,-178 895,-178 533.8351,-178 533.8351,-178"/>
<polygon fill="#000000" stroke="#000000" points="533.8351,-174.5001 523.8351,-178 533.8351,-181.5001 533.8351,-174.5001"/>
</g>
<!-- TextPipe -->
<g id="node2" class="node">
<title>TextPipe</title>
<polygon fill="#ffffb3" stroke="#000000" points="833.0471,-122 766.9529,-122 766.9529,-86 833.0471,-86 833.0471,-122"/>
<text text-anchor="middle" x="800" y="-99.8" font-family="Times,serif" font-size="14.00" fill="#000000">TextPipe</text>
</g>
<!-- TextPipe&#45;&gt;NeoPipesModule -->
<g id="edge2" class="edge">
<title>TextPipe&#45;&gt;NeoPipesModule</title>
<path fill="none" stroke="#000000" d="M800,-122.1061C800,-141.3391 800,-169 800,-169 800,-169 533.8664,-169 533.8664,-169"/>
<polygon fill="#000000" stroke="#000000" points="533.8664,-165.5001 523.8664,-169 533.8663,-172.5001 533.8664,-165.5001"/>
</g>
<!-- TextPipeTwoLevel -->
<g id="node3" class="node">
<title>TextPipeTwoLevel</title>
<polygon fill="#ffffb3" stroke="#000000" points="749.0772,-122 624.9228,-122 624.9228,-86 749.0772,-86 749.0772,-122"/>
<text text-anchor="middle" x="687" y="-99.8" font-family="Times,serif" font-size="14.00" fill="#000000">TextPipeTwoLevel</text>
</g>
<!-- TextPipeTwoLevel&#45;&gt;NeoPipesModule -->
<g id="edge3" class="edge">
<title>TextPipeTwoLevel&#45;&gt;NeoPipesModule</title>
<path fill="none" stroke="#000000" d="M687,-122.027C687,-138.3976 687,-160 687,-160 687,-160 533.6555,-160 533.6555,-160"/>
<polygon fill="#000000" stroke="#000000" points="533.6555,-156.5001 523.6555,-160 533.6554,-163.5001 533.6555,-156.5001"/>
</g>
<!-- NumberPipeTwoLevel -->
<g id="node4" class="node">
<title>NumberPipeTwoLevel</title>
<polygon fill="#ffffb3" stroke="#000000" points="607.2921,-122 462.7079,-122 462.7079,-86 607.2921,-86 607.2921,-122"/>
<text text-anchor="middle" x="535" y="-99.8" font-family="Times,serif" font-size="14.00" fill="#000000">NumberPipeTwoLevel</text>
</g>
<!-- NumberPipeTwoLevel&#45;&gt;NeoPipesModule -->
<g id="edge4" class="edge">
<title>NumberPipeTwoLevel&#45;&gt;NeoPipesModule</title>
<path fill="none" stroke="#000000" d="M493.2279,-122.1061C493.2279,-122.1061 493.2279,-140.991 493.2279,-140.991"/>
<polygon fill="#000000" stroke="#000000" points="489.728,-140.9909 493.2279,-150.991 496.728,-140.991 489.728,-140.9909"/>
</g>
<!-- BeautifyPipe -->
<g id="node5" class="node">
<title>BeautifyPipe</title>
<polygon fill="#ffffb3" stroke="#000000" points="444.5955,-122 355.4045,-122 355.4045,-86 444.5955,-86 444.5955,-122"/>
<text text-anchor="middle" x="400" y="-99.8" font-family="Times,serif" font-size="14.00" fill="#000000">BeautifyPipe</text>
</g>
<!-- BeautifyPipe&#45;&gt;NeoPipesModule -->
<g id="edge5" class="edge">
<title>BeautifyPipe&#45;&gt;NeoPipesModule</title>
<path fill="none" stroke="#000000" d="M427.473,-122.1061C427.473,-122.1061 427.473,-140.991 427.473,-140.991"/>
<polygon fill="#000000" stroke="#000000" points="423.9731,-140.9909 427.473,-150.991 430.9731,-140.991 423.9731,-140.9909"/>
</g>
<!-- DatePipe -->
<g id="node6" class="node">
<title>DatePipe</title>
<polygon fill="#ffffb3" stroke="#000000" points="337.8149,-122 270.1851,-122 270.1851,-86 337.8149,-86 337.8149,-122"/>
<text text-anchor="middle" x="304" y="-99.8" font-family="Times,serif" font-size="14.00" fill="#000000">DatePipe</text>
</g>
<!-- DatePipe&#45;&gt;NeoPipesModule -->
<g id="edge6" class="edge">
<title>DatePipe&#45;&gt;NeoPipesModule</title>
<path fill="none" stroke="#000000" d="M304,-122.027C304,-138.3976 304,-160 304,-160 304,-160 399.9905,-160 399.9905,-160"/>
<polygon fill="#000000" stroke="#000000" points="399.9905,-163.5001 409.9905,-160 399.9905,-156.5001 399.9905,-163.5001"/>
</g>
<!-- RangePipe -->
<g id="node7" class="node">
<title>RangePipe</title>
<polygon fill="#ffffb3" stroke="#000000" points="252.1544,-122 175.8456,-122 175.8456,-86 252.1544,-86 252.1544,-122"/>
<text text-anchor="middle" x="214" y="-99.8" font-family="Times,serif" font-size="14.00" fill="#000000">RangePipe</text>
</g>
<!-- RangePipe&#45;&gt;NeoPipesModule -->
<g id="edge7" class="edge">
<title>RangePipe&#45;&gt;NeoPipesModule</title>
<path fill="none" stroke="#000000" d="M214,-122.1061C214,-141.3391 214,-169 214,-169 214,-169 400.2219,-169 400.2219,-169"/>
<polygon fill="#000000" stroke="#000000" points="400.2219,-172.5001 410.2219,-169 400.2218,-165.5001 400.2219,-172.5001"/>
</g>
<!-- RangePipeTwoLevel -->
<g id="node8" class="node">
<title>RangePipeTwoLevel</title>
<polygon fill="#ffffb3" stroke="#000000" points="158.1853,-122 23.8147,-122 23.8147,-86 158.1853,-86 158.1853,-122"/>
<text text-anchor="middle" x="91" y="-99.8" font-family="Times,serif" font-size="14.00" fill="#000000">RangePipeTwoLevel</text>
</g>
<!-- RangePipeTwoLevel&#45;&gt;NeoPipesModule -->
<g id="edge8" class="edge">
<title>RangePipeTwoLevel&#45;&gt;NeoPipesModule</title>
<path fill="none" stroke="#000000" d="M91,-122.2921C91,-144.2057 91,-178 91,-178 91,-178 400.3019,-178 400.3019,-178"/>
<polygon fill="#000000" stroke="#000000" points="400.3019,-181.5001 410.3019,-178 400.3019,-174.5001 400.3019,-181.5001"/>
</g>
<!-- BeautifyPipe  -->
<g id="node10" class="node">
<title>BeautifyPipe </title>
<polygon fill="#fb8072" stroke="#000000" points="513.0963,-252 420.9037,-252 420.9037,-216 513.0963,-216 513.0963,-252"/>
<text text-anchor="middle" x="467" y="-229.8" font-family="Times,serif" font-size="14.00" fill="#000000">BeautifyPipe </text>
</g>
<!-- NeoPipesModule&#45;&gt;BeautifyPipe  -->
<g id="edge9" class="edge">
<title>NeoPipesModule&#45;&gt;BeautifyPipe </title>
<path fill="none" stroke="#000000" stroke-dasharray="5,2" d="M467,-187.1061C467,-187.1061 467,-205.991 467,-205.991"/>
<polygon fill="#000000" stroke="#000000" points="463.5001,-205.9909 467,-215.991 470.5001,-205.991 463.5001,-205.9909"/>
</g>
</g>
</svg>
